<svg xmlns="http://www.w3.org/2000/svg" xmlns:xlink="http://www.w3.org/1999/xlink" width="30.493" height="30.5" viewBox="0 0 30.493 30.5">
  <defs>
    <filter id="Icon_ionic-ios-settings" x="0" y="0" width="30.493" height="30.5" filterUnits="userSpaceOnUse">
      <feOffset dx="1.5" dy="1.5" input="SourceAlpha"/>
      <feGaussianBlur stdDeviation="0.75" result="blur"/>
      <feFlood flood-opacity="0.161"/>
      <feComposite operator="in" in2="blur"/>
      <feComposite in="SourceGraphic"/>
    </filter>
    <filter id="Icon_ionic-ios-settings-2" x="0" y="0" width="30.493" height="30.5" filterUnits="userSpaceOnUse">
      <feOffset dx="1.5" dy="1.5" input="SourceAlpha"/>
      <feGaussianBlur stdDeviation="0.75" result="blur-2"/>
      <feFlood flood-opacity="0.161" result="color"/>
      <feComposite operator="out" in="SourceGraphic" in2="blur-2"/>
      <feComposite operator="in" in="color"/>
      <feComposite operator="in" in2="SourceGraphic"/>
    </filter>
  </defs>
  <g data-type="innerShadowGroup">
    <g transform="matrix(1, 0, 0, 1, 0, 0)" filter="url(#Icon_ionic-ios-settings)">
      <path id="Icon_ionic-ios-settings-3" data-name="Icon ionic-ios-settings" d="M28.347,17.5a3.345,3.345,0,0,1,2.146-3.121,13.258,13.258,0,0,0-1.6-3.865,3.39,3.39,0,0,1-1.361.291,3.337,3.337,0,0,1-3.053-4.7,13.218,13.218,0,0,0-3.858-1.6,3.342,3.342,0,0,1-6.241,0,13.258,13.258,0,0,0-3.865,1.6,3.337,3.337,0,0,1-3.053,4.7A3.279,3.279,0,0,1,6.1,10.511a13.551,13.551,0,0,0-1.6,3.872,3.344,3.344,0,0,1,.007,6.241,13.258,13.258,0,0,0,1.6,3.865A3.339,3.339,0,0,1,10.518,28.9a13.335,13.335,0,0,0,3.865,1.6,3.336,3.336,0,0,1,6.228,0,13.258,13.258,0,0,0,3.865-1.6,3.342,3.342,0,0,1,4.407-4.407,13.336,13.336,0,0,0,1.6-3.865A3.361,3.361,0,0,1,28.347,17.5Zm-10.79,5.408a5.415,5.415,0,1,1,5.415-5.415A5.414,5.414,0,0,1,17.558,22.905Z" transform="translate(-3.75 -3.75)" fill="#fff"/>
    </g>
    <g transform="matrix(1, 0, 0, 1, 0, 0)" filter="url(#Icon_ionic-ios-settings-2)">
      <path id="Icon_ionic-ios-settings-4" data-name="Icon ionic-ios-settings" d="M28.347,17.5a3.345,3.345,0,0,1,2.146-3.121,13.258,13.258,0,0,0-1.6-3.865,3.39,3.39,0,0,1-1.361.291,3.337,3.337,0,0,1-3.053-4.7,13.218,13.218,0,0,0-3.858-1.6,3.342,3.342,0,0,1-6.241,0,13.258,13.258,0,0,0-3.865,1.6,3.337,3.337,0,0,1-3.053,4.7A3.279,3.279,0,0,1,6.1,10.511a13.551,13.551,0,0,0-1.6,3.872,3.344,3.344,0,0,1,.007,6.241,13.258,13.258,0,0,0,1.6,3.865A3.339,3.339,0,0,1,10.518,28.9a13.335,13.335,0,0,0,3.865,1.6,3.336,3.336,0,0,1,6.228,0,13.258,13.258,0,0,0,3.865-1.6,3.342,3.342,0,0,1,4.407-4.407,13.336,13.336,0,0,0,1.6-3.865A3.361,3.361,0,0,1,28.347,17.5Zm-10.79,5.408a5.415,5.415,0,1,1,5.415-5.415A5.414,5.414,0,0,1,17.558,22.905Z" transform="translate(-3.75 -3.75)" fill="#fff"/>
    </g>
  </g>
</svg>
