<svg xmlns="http://www.w3.org/2000/svg" width="16" height="16" viewBox="0 0 16 16">
  <path id="Path_2102" data-name="Path 2102" d="M4,14.667h8v-4H4Zm9.333,0h1.333V5.333a1.151,1.151,0,0,0-.1-.4,1.121,1.121,0,0,0-.208-.359L11.427,1.646a1.125,1.125,0,0,0-.354-.208,1.121,1.121,0,0,0-.406-.1V5.667a1,1,0,0,1-1,1h-6a1,1,0,0,1-1-1V1.333H1.333V14.667H2.667V10.333a1,1,0,0,1,1-1h8.667a1,1,0,0,1,1,1ZM9.333,5V1.667A.338.338,0,0,0,9,1.333H7a.338.338,0,0,0-.333.333V5A.338.338,0,0,0,7,5.333H9A.338.338,0,0,0,9.333,5ZM16,5.333V15a1,1,0,0,1-1,1H1a.964.964,0,0,1-.708-.292A.964.964,0,0,1,0,15V1A.964.964,0,0,1,.292.292.964.964,0,0,1,1,0h9.667a2.4,2.4,0,0,1,.917.208,2.424,2.424,0,0,1,.792.5l2.917,2.917a2.424,2.424,0,0,1,.5.792A2.4,2.4,0,0,1,16,5.333Z" fill="#fff"/>
</svg>
