<svg xmlns="http://www.w3.org/2000/svg" width="233.422" height="49.019" viewBox="0 0 233.422 49.019">
  <g id="Group_30" data-name="Group 30" transform="translate(1688 254.02)">
    <g id="Group_28" data-name="Group 28" transform="translate(-1688 -254.02)">
      <path id="Path_1996" data-name="Path 1996" d="M20,107.92H56c3.706,0,5.716,3.033,4.465,6.74L49.852,146.111c-1.25,3.706-5.306,6.739-9.013,6.739H4.844c-3.707,0-5.716-3.033-4.466-6.739L10.99,114.66c1.251-3.707,5.307-6.74,9.014-6.74Z" transform="translate(-0.007 -105.936)" fill="#009edf" fill-rule="evenodd"/>
      <path id="Path_1997" data-name="Path 1997" d="M528.33,401.08c12.345,6.955,21.13,8.492,28.7,23.911,4.174-8.249,11.2-16.616,22.382-19.2-13.952,9.695-12.805,16.6-20.467,34.369-.757,1.754-2.245,2.828-3.584,2.514s-2.272-2.14-2.819-4.02C546.1,416.527,542.4,414.708,528.33,401.08Z" transform="translate(-518.619 -393.708)" fill="none" fill-rule="evenodd"/>
      <path id="_1" d="M528.33,401.08c12.345,6.955,21.13,8.492,28.7,23.911,4.174-8.249,11.2-16.616,22.382-19.2-13.952,9.695-12.805,16.6-20.467,34.369-.757,1.754-2.245,2.828-3.584,2.514s-2.272-2.14-2.819-4.02C546.1,416.527,542.4,414.708,528.33,401.08Z" transform="translate(-518.619 -393.708)" fill="#009edf" fill-rule="evenodd"/>
      <path id="Path_1998" data-name="Path 1998" d="M684.64,517.96c11.068,6.236,19.185,8.833,25.828,23.646,5.763-10.9,11.474-17.293,20.607-20.275l.008.064c-12.509,8.692-12.219,16.523-19.089,32.45-.679,1.573-2.012,2.537-3.214,2.255s-2.037-1.919-2.527-3.6C700.485,532.66,697.251,530.178,684.64,517.96Z" transform="translate(-672.056 -508.439)" fill="#fefefe" fill-rule="evenodd"/>
      <path id="Path_1999" data-name="Path 1999" d="M2294.1,6.624l-.475.016h0l-.022-.328-.036-.323-.053-.318-.068-.313-.083-.306-.1-.3-.112-.294-.125-.286-.139-.279-.152-.27-.164-.262-.177-.253-.188-.245-.2-.234L2291.8,2.4l-.221-.215-.23-.2-.24-.192-.249-.181-.257-.17-.265-.157-.275-.144-.28-.131L2289.5.892l-.294-.1-.3-.09-.306-.075-.312-.061-.316-.044-.321-.029-.325-.014-.33,0L2286.974,0l.352,0,.349.013.346.031.34.048.334.064.33.081.323.1.316.112.309.127.3.141.293.156.286.168.277.182.268.195.258.207.248.219.236.23.226.242.214.253.2.261.19.273.177.282.163.291.149.3.135.307.121.316.105.323.089.33.074.335.056.342.04.348Zm-6.62,7.126-.017-.475h0l.328-.021.323-.036.318-.053.313-.068.306-.083.3-.1.293-.111.287-.126.279-.14.27-.151.261-.164.253-.176.246-.188.234-.2.225-.209.215-.221.2-.23.192-.24.181-.249.169-.257.157-.266.144-.275.131-.28.118-.289.1-.294.09-.3.075-.306.06-.312.045-.316.029-.321.014-.325,0-.33.475-.016,0,.352-.013.349-.031.345-.048.341-.064.334-.081.33-.1.324-.111.317-.127.309-.141.3-.155.293-.169.286-.182.276-.194.267-.208.258-.219.247-.23.236-.242.226-.253.214-.262.2-.272.189-.282.177-.291.163-.3.149-.307.135-.315.121-.322.105-.33.088-.336.074-.342.057-.347.04-.352.021Zm-7.127-6.62.475-.016h0l.021.328.036.323.053.318.068.313.083.305.1.3.112.293.126.287.139.278.152.271.163.262.177.253.189.245.2.235.208.225.221.215.23.2.239.192.249.181.258.169.265.157.275.144.281.131.288.118.294.1.3.09.3.075.312.061.316.044.321.029.326.014.33,0,.017.475-.352,0-.35-.013-.345-.031-.341-.048-.335-.065-.33-.081-.323-.1-.317-.112-.308-.127-.3-.141-.293-.156-.286-.168-.277-.182-.267-.195-.258-.207-.247-.219-.235-.23-.226-.242-.214-.253-.2-.261-.19-.273-.177-.282-.163-.291-.148-.3-.135-.307-.121-.315-.1-.322-.089-.33-.074-.335-.056-.342-.04-.348-.021-.352ZM2286.974,0l.016.475h0l-.328.021-.323.036-.318.053-.313.068L2285.4.74l-.3.1-.293.112-.287.125-.279.14-.27.152-.262.164-.254.177-.245.188-.235.2-.225.21-.215.221-.2.23-.192.24-.181.249-.169.257-.157.266-.145.275-.132.28-.117.289-.1.294-.089.3-.075.306-.061.312-.044.316-.029.321-.013.324,0,.33-.475.016,0-.352.014-.349.031-.345.048-.341.065-.334.081-.33.1-.324.112-.317.127-.309.141-.3.156-.293.169-.286.181-.276.195-.267.208-.258.219-.247.23-.236.242-.226.253-.214.261-.2.273-.189.282-.177.291-.163.3-.149.307-.134.315-.121.322-.106L2285.6.2l.335-.074.342-.057.348-.04.352-.022Z" transform="translate(-2238.434 0)" fill="#009edf"/>
      <path id="Path_2000" data-name="Path 2000" d="M2299.626,12.895a6.64,6.64,0,1,1-6.391,6.881A6.653,6.653,0,0,1,2299.626,12.895Z" transform="translate(-2251.079 -12.653)" fill="#009edf" fill-rule="evenodd"/>
      <path id="Path_2001" data-name="Path 2001" d="M2342.849,56.895a5.831,5.831,0,1,1-5.613,6.043A5.842,5.842,0,0,1,2342.849,56.895Z" transform="translate(-2294.272 -55.845)" fill="#fefefe" fill-rule="evenodd"/>
      <path id="Path_2002" data-name="Path 2002" d="M177.88,1031.97c8.3,4.674,14.2,5.706,19.282,16.068,2.8-5.543,7.524-11.166,15.04-12.9-9.375,6.514-8.6,11.157-13.753,23.094a2.347,2.347,0,0,1-2.408,1.689c-.9-.211-1.527-1.438-1.894-2.7C189.822,1042.35,187.332,1041.127,177.88,1031.97Z" transform="translate(-174.61 -1013.001)" fill="none" fill-rule="evenodd"/>
      <path id="_1_0" d="M177.88,1031.97c8.3,4.674,14.2,5.706,19.282,16.068,2.8-5.543,7.524-11.166,15.04-12.9-9.375,6.514-8.6,11.157-13.753,23.094a2.347,2.347,0,0,1-2.408,1.689c-.9-.211-1.527-1.438-1.894-2.7C189.822,1042.35,187.332,1041.127,177.88,1031.97Z" transform="translate(-174.61 -1013.001)" fill="#fefefe" fill-rule="evenodd"/>
      <path id="Path_2003" data-name="Path 2003" d="M282.91,1110.53c7.437,4.19,12.891,5.935,17.355,15.889,3.872-7.328,7.71-11.62,13.847-13.625l.006.044c-8.405,5.841-8.211,11.1-12.827,21.805a2.1,2.1,0,0,1-2.159,1.514c-.807-.189-1.368-1.289-1.7-2.422C293.557,1120.407,291.384,1118.74,282.91,1110.53Z" transform="translate(-277.71 -1090.117)" fill="#2b2a29" fill-rule="evenodd"/>
    </g>
    <g id="Group_29" data-name="Group 29" transform="translate(-1624.028 -243.997)">
      <path id="Path_2004" data-name="Path 2004" d="M3349.411,1950.117a3.227,3.227,0,0,0,1.619.677,1.432,1.432,0,0,0,1.149-.578,1.883,1.883,0,0,0,.305-1.388,2.57,2.57,0,0,0-.479-1.3,9.985,9.985,0,0,0-1.181-1.305,10.5,10.5,0,0,1-1.214-1.347,3.137,3.137,0,0,1-.562-1.438,3.873,3.873,0,0,1,.57-2.818,2.5,2.5,0,0,1,2.123-1.033,4.04,4.04,0,0,1,1.8.43v1.636a2.1,2.1,0,0,0-1.387-.513,1.372,1.372,0,0,0-1.074.463,1.893,1.893,0,0,0-.414,1.305,1.63,1.63,0,0,0,.356,1.033,18.181,18.181,0,0,0,1.231,1.346,10.355,10.355,0,0,1,1.364,1.661,3.482,3.482,0,0,1,.537,1.71,3.569,3.569,0,0,1-.8,2.784,2.905,2.905,0,0,1-2.173.934,2.666,2.666,0,0,1-1.768-.579Zm6.7-3.29q0-.578-.033-.908a22.036,22.036,0,0,1,.231-2.892,5.872,5.872,0,0,1,.769-2.215,2.337,2.337,0,0,1,1.611-1.124,2.868,2.868,0,0,1,2.032.248,3.007,3.007,0,0,1,1.248,1.421,6.107,6.107,0,0,1,.5,2.049q.131,2.049.132,3.024a10.567,10.567,0,0,1-.735,4.371,2.582,2.582,0,0,1-2.537,1.578,2.616,2.616,0,0,1-2.338-1.339A8.48,8.48,0,0,1,3356.115,1946.828Zm1.768-.363q-.051,4.329,1.487,4.4a.29.29,0,0,1,.132-.033,1.066,1.066,0,0,0,.835-.595,3.465,3.465,0,0,0,.38-1.2,14.628,14.628,0,0,0,.115-1.5q.025-.834.025-1.842a15.527,15.527,0,0,0-.14-2.43,4.559,4.559,0,0,0-.479-1.6.954.954,0,0,0-.834-.546h-.067q-.892.067-1.173,1.348a17.346,17.346,0,0,0-.314,3.329A5.6,5.6,0,0,1,3357.883,1946.465Zm7.5-6.709h4.479v1.422h-2.843v3.933h2.545v1.421h-2.545v5.685h-1.637Zm5.629,0h5.486v1.422h-1.867v11.039h-1.686v-11.039h-1.934Zm7.447,0h4.446v1.422h-2.809v3.933h2.528v1.421h-2.528v4.231h2.809v1.454h-4.446Zm11.644.2v1.52a2.06,2.06,0,0,0-1.141-.331,1.9,1.9,0,0,0-1.768,1.322,9.978,9.978,0,0,0-.529,3.685,17.394,17.394,0,0,0,.182,2.223,4.037,4.037,0,0,0,.67,1.685,1.906,1.906,0,0,0,1.578.8,2.553,2.553,0,0,0,1.008-.3v1.454a2.456,2.456,0,0,1-1.388.364,3.627,3.627,0,0,1-1.53-.356,2.781,2.781,0,0,1-1.164-.933,9.589,9.589,0,0,1-1.091-5.007,12.157,12.157,0,0,1,.743-4.495,3.463,3.463,0,0,1,1.182-1.463,2.893,2.893,0,0,1,1.694-.537A3.637,3.637,0,0,1,3390.1,1939.954Zm2.307-.2h1.636v4.876h2.495v-4.876h1.67v12.46h-1.67v-6.165h-2.495v6.165h-1.636Zm14.066,12.46v-12.46h2.248a2.852,2.852,0,0,1,2.23.777,3.777,3.777,0,0,1,.744,2.446,3.9,3.9,0,0,1-.834,2.908,3.439,3.439,0,0,1-2.388.843,1.559,1.559,0,0,0-.363-.033v5.52Zm1.636-6.908a1.8,1.8,0,0,0,1.364-.38,2.053,2.053,0,0,0,.472-1.554,2.762,2.762,0,0,0-.439-1.744,1.585,1.585,0,0,0-1.4-.487Zm5.843,6.908v-12.46h2.248a2.763,2.763,0,0,1,2.015.653,3.239,3.239,0,0,1,.794,2.057,5.9,5.9,0,0,1-.124,1.744,3.33,3.33,0,0,1-.6,1.355,1.445,1.445,0,0,1-.976.587l2.281,6.065h-1.7l-2.264-6.1h-.033v6.1Zm1.636-6.94q1.685.082,1.686-2.1a2.868,2.868,0,0,0-.323-1.429,1.156,1.156,0,0,0-1.1-.57h-.264Zm7.926-5.52v12.46h-1.636v-12.46Zm2.225,0h1.636l1.421,9.353h.033l1.521-9.353h1.552l-2.461,12.46h-1.323Zm9.479,0h1.322l2.676,12.46h-1.669l-.5-2.413H3434.6l-.479,2.413h-1.62Zm1.619,8.742-.975-6.346h-.032l-.992,6.346Zm2.819-8.742h5.487v1.422h-1.867v11.039h-1.686v-11.039h-1.934Zm7.447,0h4.446v1.422h-2.81v3.933h2.528v1.421h-2.528v4.231h2.81v1.454H3447.1Zm12,0h1.636v11.006h2.81v1.454H3459.1Zm8.142,0v12.46h-1.636v-12.46Zm3.514,0h1.421l1.768,8.974h.033l1.62-8.974h1.454l1.156,12.46h-1.619l-.413-8.593h-.033l-1.587,8.593h-1.123l-1.619-8.593h-.034l-.479,8.593h-1.587Zm11.544,0v12.46h-1.636v-12.46Zm2.026,0h5.487v1.422h-1.868v11.039h-1.685v-11.039h-1.934Zm7.447,0h4.446v1.422h-2.809v3.933h2.528v1.421h-2.528v4.231h2.809v1.454h-4.446Zm6.8,0h2.314a2.935,2.935,0,0,1,2.471.95,4.894,4.894,0,0,1,.95,2.206q.149.81.223,1.669t.074,1.768a8.874,8.874,0,0,1-.843,4.412,2.531,2.531,0,0,1-1.5,1.19,8.579,8.579,0,0,1-2.306.265h-1.388Zm1.67,1.388-.033,9.651a2.365,2.365,0,0,0,1.7-.47,2.485,2.485,0,0,0,.826-1.628,20.457,20.457,0,0,0,.115-2.38,13.884,13.884,0,0,0-.313-3.553,2.433,2.433,0,0,0-.843-1.256A2.1,2.1,0,0,0,3500.245,1941.143Z" transform="translate(-3349.007 -1916.138)" fill="#2b2a29" fill-rule="evenodd"/>
      <path id="Path_2005" data-name="Path 2005" d="M3408.9,991.761l-.737,3.349h.959a2.333,2.333,0,0,0,1.444-.428,2,2,0,0,0,.745-1.222,1.388,1.388,0,0,0-.2-1.259,1.574,1.574,0,0,0-1.253-.44Zm-8.841,12.727,3.769-17.138h7.753q3.368,0,4.823,1.487t.836,4.283a6.063,6.063,0,0,1-1.557,3.008,4.506,4.506,0,0,1-2.721,1.383l3.041,6.977h-6.9l-1.753-5.654-1.243,5.654Zm17.162,0,3.769-17.138h11.461L3431.429,992h-5.418l-.362,1.65h4.914l-.966,4.391h-4.915l-.4,1.8h5.558l-1.022,4.648Zm16.306,0,2.536-11.532h-3.428l1.233-5.606h13.014l-1.233,5.606h-3.428l-2.537,11.532Zm17.876-6.23h2.562l-.1-1.941c-.042-.983-.052-1.743-.027-2.274a11.678,11.678,0,0,1,.153-1.494h-.1a14.4,14.4,0,0,1-.5,1.494c-.212.531-.555,1.29-1.027,2.274Zm-9.542,6.23,9.878-17.138h6.861l2.225,17.138H3454.2l-.077-2.154h-4.647l-1,2.154Zm20.03,0,3.77-17.138h6.262l-3.77,17.138Zm9.585,0,3.77-17.138h6.17l-2.546,11.576h5.993l-1.223,5.562Zm25.1-8.675a18.006,18.006,0,0,1-.917,2.425c-.078.172-.14.309-.186.408l-2.571,5.842h-5.374l-1.241-17.138h6.181l-.314,7.552c-.03.664-.071,1.266-.131,1.818s-.132,1.067-.222,1.55h.14a18.5,18.5,0,0,1,.953-2.68c.039-.1.072-.18.1-.244l3.388-8h4.344l-.135,8.007c0,.048,0,.124,0,.232a16.162,16.162,0,0,1-.23,2.68h.144c.118-.483.272-1,.458-1.55s.4-1.154.667-1.818l3.007-7.552h6.182l-8.78,17.138h-5.375l0-5.842c0-.1,0-.24,0-.42a14.207,14.207,0,0,1,.143-2.413Zm18.37,2.445h2.561l-.1-1.941c-.043-.983-.052-1.743-.026-2.274a11.594,11.594,0,0,1,.152-1.494h-.1a14.388,14.388,0,0,1-.5,1.494c-.213.531-.556,1.29-1.028,2.274Zm-9.542,6.23,9.879-17.138h6.861l2.224,17.138h-6.625l-.078-2.154h-4.647l-1,2.154Zm28.751-12.727-.736,3.349h.959a2.338,2.338,0,0,0,1.445-.428,2.008,2.008,0,0,0,.744-1.222,1.391,1.391,0,0,0-.2-1.259,1.574,1.574,0,0,0-1.254-.44Zm-8.84,12.727,3.77-17.138h7.751q3.368,0,4.823,1.487t.836,4.283a6.074,6.074,0,0,1-1.557,3.008,4.511,4.511,0,0,1-2.722,1.383l3.041,6.977h-6.9l-1.754-5.654-1.244,5.654Zm17.162,0,3.77-17.138h11.459L3556.686,992h-5.418l-.363,1.65h4.915l-.965,4.391h-4.915l-.4,1.8h5.559l-1.022,4.648Z" transform="translate(-3398.929 -984.988)" fill="#009edf" fill-rule="evenodd"/>
      <path id="Path_2006" data-name="Path 2006" d="M10601.795,880.73a4.455,4.455,0,1,1-3.15,1.3A4.444,4.444,0,0,1,10601.795,880.73Zm2.77,1.685a3.915,3.915,0,1,0,1.147,2.77A3.9,3.9,0,0,0,10604.564,882.415Z" transform="translate(-10436.8 -880.73)" fill="#2b2a29"/>
      <path id="Path_2007" data-name="Path 2007" d="M10707.7,969.441V964.23h2.31a3.085,3.085,0,0,1,1.06.141,1.164,1.164,0,0,1,.579.495,1.485,1.485,0,0,1,.215.787,1.3,1.3,0,0,1-.357.934,1.82,1.82,0,0,1-1.108.484,1.752,1.752,0,0,1,.415.259,3.583,3.583,0,0,1,.572.693l.906,1.418h-.866l-.689-1.085c-.2-.312-.368-.552-.5-.717a1.534,1.534,0,0,0-.349-.348,1.059,1.059,0,0,0-.314-.14,2.18,2.18,0,0,0-.384-.024h-.8v2.314Zm.688-2.911h1.482a2.216,2.216,0,0,0,.739-.1.786.786,0,0,0,.405-.313.857.857,0,0,0,.139-.467.778.778,0,0,0-.269-.608,1.254,1.254,0,0,0-.849-.237h-1.648Z" transform="translate(-10544.717 -962.381)" fill="#2b2a29"/>
    </g>
  </g>
</svg>
